<svg xmlns="http://www.w3.org/2000/svg" width="100" height="100">
    <g>
        <title>
            background
        </title>
        <rect id="canvas_background" width="102" height="102" x="-1" y="-1" fill="#0077ae"/>
    </g>
    <g>
        <title>
            Layer 1
        </title>
        <g id="svg_1">
            <path id="svg_2" fill="#ffffff" d="m30,45.4645l13,0c0.553,0 1,-0.448 1,-1s-0.447,-1 -1,-1l-13,0c-0.553,0 -1,0.448 -1,1s0.447,1 1,1z"/>
            <path id="svg_3" fill="#ffffff" d="m56,49.4645l-26,0c-0.553,0 -1,0.448 -1,1s0.447,1 1,1l26,0c0.553,0 1,-0.448 1,-1s-0.447,-1 -1,-1z"/>
            <path id="svg_4" fill="#ffffff" d="m56,55.4645l-26,0c-0.553,0 -1,0.448 -1,1s0.447,1 1,1l26,0c0.553,0 1,-0.448 1,-1s-0.447,-1 -1,-1z"/>
            <path id="svg_5" fill="#ffffff" d="m74.072,22.5345l-34.142,-0.07c-3.27,0 -5.93,2.66 -5.93,5.93l0,5.124l-8.07,0.017c-3.27,0 -5.93,2.66 -5.93,5.93l0,21.141c0,3.27 2.66,5.929 5.93,5.929l6.07,0l0,10c0,0.413 0.254,0.784 0.64,0.933c0.117,0.045 0.239,0.067 0.36,0.067c0.276,0 0.547,-0.115 0.74,-0.327l9.704,-10.675l16.626,-0.068c3.27,0 5.93,-2.66 5.93,-5.929l0,-0.113l5.26,5.786c0.193,0.212 0.464,0.327 0.74,0.327c0.121,0 0.243,-0.022 0.36,-0.067c0.386,-0.149 0.64,-0.52 0.64,-0.933l0,-10l1.07,0c3.27,0 5.93,-2.66 5.93,-5.929l0,-21.143c0,-3.269 -2.659,-5.929 -5.928,-5.93zm-10.072,38.001c0,2.167 -1.763,3.929 -3.934,3.929l-17.07,0.07c-0.28,0.001 -0.548,0.12 -0.736,0.327l-8.26,9.087l0,-8.414c0,-0.552 -0.447,-1 -1,-1l-7.07,0c-2.167,0 -3.93,-1.763 -3.93,-3.929l0,-21.141c0,-2.167 1.763,-3.93 3.932,-3.93l9.068,-0.019c0,0 0,0 0,0c0.001,0 0.001,0 0.002,0l25.068,-0.052c2.167,0 3.93,1.763 3.93,3.93l0,18.441l0,2.701zm14,-10.93c0,2.167 -1.763,3.929 -3.93,3.929l-2.07,0c-0.553,0 -1,0.448 -1,1l0,8.414l-5,-5.5l0,-18.054c0,-3.27 -2.66,-5.93 -5.932,-5.93l-24.068,0.049l0,-5.12c0,-2.167 1.763,-3.93 3.928,-3.93l34.141,0.07c0.001,0 0.001,0 0.002,0c2.167,0 3.93,1.763 3.93,3.93l0,21.142l-0.001,0z"/>
        </g>
    </g>
</svg>
