<svg xmlns="http://www.w3.org/2000/svg" width="51.012" height="51.012">
    <g>
        <title>
            background
        </title>
        <rect id="canvas_background" width="53.012" height="53.012" x="-1" y="-1" fill="#0077ae"/>
    </g>
    <g>
        <title>
            Layer 1
        </title>
        <g id="svg_1">
            <g id="svg_2">
                <path id="svg_3" fill="#ffffff" d="m35.109,31.510501c-0.123,0 -0.246,-0.045 -0.342,-0.136l-5.754,-5.398c-0.201,-0.188 -0.211,-0.505 -0.022,-0.706c0.189,-0.203 0.504,-0.212 0.707,-0.022l5.754,5.398c0.201,0.188 0.211,0.505 0.022,0.706c-0.099,0.105 -0.231,0.158 -0.365,0.158z"/>
                <path id="svg_4" fill="#ffffff" d="m15.902,31.510501c-0.133,0 -0.266,-0.053 -0.365,-0.158c-0.189,-0.201 -0.179,-0.518 0.022,-0.706l5.756,-5.398c0.202,-0.188 0.519,-0.18 0.707,0.022c0.189,0.201 0.179,0.518 -0.022,0.706l-5.756,5.398c-0.096,0.091 -0.219,0.136 -0.342,0.136z"/>
            </g>
            <path id="svg_5" fill="#ffffff" d="m38.512,36.529501l-26.012,0c-1.378,0 -2.5,-1.121 -2.5,-2.5l0,-17.047c0,-1.379 1.122,-2.5 2.5,-2.5l26.012,0c1.378,0 2.5,1.121 2.5,2.5l0,17.047c0,1.379 -1.122,2.5 -2.5,2.5zm-26.012,-21.047c-0.827,0 -1.5,0.673 -1.5,1.5l0,17.047c0,0.827 0.673,1.5 1.5,1.5l26.012,0c0.827,0 1.5,-0.673 1.5,-1.5l0,-17.047c0,-0.827 -0.673,-1.5 -1.5,-1.5l-26.012,0z"/>
            <path id="svg_6" fill="#ffffff" d="m25.506,28.018501c-0.665,0 -1.33,-0.221 -1.836,-0.662l-12.84,-11.201c-0.208,-0.181 -0.23,-0.497 -0.049,-0.706c0.183,-0.208 0.498,-0.227 0.706,-0.048l12.84,11.2c0.639,0.557 1.719,0.557 2.357,0l12.824,-11.182c0.207,-0.181 0.522,-0.161 0.706,0.048c0.181,0.209 0.16,0.524 -0.048,0.706l-12.824,11.182c-0.507,0.442 -1.171,0.663 -1.836,0.663z"/>
        </g>
    </g>
</svg>
