<svg xmlns="http://www.w3.org/2000/svg" width="114.751" height="114.751">
    <g>
        <title>
            background
        </title>
        <rect id="canvas_background" width="116.751" height="116.751" x="-1" y="-1" fill="#0077ae"/>
    </g>
    <g>
        <title>
            Layer 1
        </title>
        <g id="svg_1">
            <path id="svg_2" fill="#ffffff" d="m86.8095,37.576l-8.659,0l0,-15.554c0,-3.039 -2.484,-5.522 -5.521,-5.522l-36.447,0c-3.039,0 -5.521,2.483 -5.521,5.522l0,70.707c0,3.038 2.483,5.522 5.521,5.522l36.447,0c3.036,0 5.521,-2.484 5.521,-5.522l0,-17.754l8.659,0c2.912,0 5.28,-2.352 5.28,-5.244l0,-26.911c0,-2.889 -2.368,-5.244 -5.28,-5.244zm-38.235,-17.096l11.661,0c0.368,0 0.67,0.299 0.67,0.668c0,0.366 -0.302,0.667 -0.67,0.667l-11.661,0c-0.369,0 -0.667,-0.301 -0.667,-0.667c0,-0.369 0.298,-0.668 0.667,-0.668zm5.83,75.014c-1.522,0 -2.761,-1.236 -2.761,-2.765c0,-1.524 1.236,-2.761 2.761,-2.761s2.764,1.236 2.764,2.761c-0.001,1.528 -1.239,2.765 -2.764,2.765zm19.902,-7.459l-39.806,0l0,-62.778l39.806,0l0,12.319l-22.755,0c-2.909,0 -5.276,2.355 -5.276,5.247l0,26.911c0,2.891 2.367,5.244 5.276,5.244l3.189,0l0,9.015l9.016,-9.015l10.55,0l0,13.057zm15.447,-18.302c0,1.604 -1.318,2.908 -2.944,2.908l-24.018,0l-5.713,5.712l0,-5.712l-5.527,0c-1.621,0 -2.94,-1.305 -2.94,-2.908l0,-26.911c0,-1.605 1.317,-2.911 2.94,-2.911l35.258,0c1.621,0 2.944,1.306 2.944,2.911l0,26.911zm-5.841,-21.483c0,0.799 -0.606,1.444 -1.353,1.444l-26.686,0c-0.745,0 -1.353,-0.645 -1.353,-1.444c0,-0.794 0.608,-1.443 1.353,-1.443l26.686,0c0.746,0 1.353,0.649 1.353,1.443zm0,7.83c0,0.8 -0.606,1.447 -1.353,1.447l-26.686,0c-0.745,0 -1.353,-0.647 -1.353,-1.447c0,-0.793 0.608,-1.44 1.353,-1.44l26.686,0c0.746,-0.001 1.353,0.646 1.353,1.44zm0,7.83c0,0.798 -0.606,1.446 -1.353,1.446l-26.686,0c-0.745,0 -1.353,-0.648 -1.353,-1.446c0,-0.796 0.608,-1.441 1.353,-1.441l26.686,0c0.746,-0.001 1.353,0.647 1.353,1.441z"/>
        </g>
    </g>
</svg>
